<?xml version="1.0" encoding="UTF-8"?>
<svg version="1.1" xmlns="http://www.w3.org/2000/svg" width="500" height="500">
<path d="M0 0 C1.04335017 -0.00226556 2.08670033 -0.00453111 3.16166717 -0.00686532 C6.6334091 -0.01316008 10.10511154 -0.01237888 13.57685852 -0.0115509 C16.07613169 -0.01454523 18.57540441 -0.01794839 21.07467651 -0.02172852 C27.14501089 -0.02963055 33.21532994 -0.03278198 39.28566804 -0.03334089 C44.22475678 -0.03381753 49.16384234 -0.03587963 54.10293007 -0.03904152 C68.13427253 -0.04784001 82.16560737 -0.05246219 96.1969526 -0.05171105 C96.95202859 -0.05167109 97.70710457 -0.05163113 98.48506165 -0.05158997 C99.24106936 -0.05154909 99.99707707 -0.0515082 100.7759941 -0.05146609 C113.01930574 -0.05105991 125.26258658 -0.06062439 137.50588932 -0.07472833 C150.10478878 -0.08912632 162.70367325 -0.09599663 175.30258113 -0.09513456 C182.36479641 -0.09480375 189.42697941 -0.09749939 196.48918724 -0.10831261 C203.13520466 -0.1184241 209.78116586 -0.11804743 216.42719078 -0.11079597 C218.85747375 -0.10975471 221.28776104 -0.11208562 223.71803665 -0.11815643 C254.95909578 -0.191102 281.51679999 4.43669791 304.93745422 26.76261902 C322.92088206 45.65346752 330.31788741 68.8529339 330.34077454 94.43424988 C330.34540993 95.77876418 330.35043555 97.12327718 330.3558197 98.4677887 C330.36888177 102.10676172 330.37537724 105.74571634 330.37983036 109.38470912 C330.38277291 111.66585389 330.38688002 113.94699377 330.39133453 116.22813606 C330.40499711 123.38715843 330.41466816 130.54616945 330.41853642 137.70520395 C330.42300537 145.92769 330.44050419 154.15000883 330.46953702 162.37244409 C330.49127573 168.75410222 330.50124726 175.13571374 330.50257754 181.51740843 C330.50361749 185.31625639 330.50934908 189.11494694 330.52739716 192.91375542 C330.67001587 224.77547942 326.53333031 252.04470306 303.47651672 275.93449402 C283.35124204 294.88100262 258.68530814 301.53006223 231.57466125 301.13273621 C229.31580594 301.11000172 227.05694533 301.087788 224.79808044 301.06602478 C223.61944553 301.05324242 222.44081062 301.04046005 221.2264595 301.02729034 C213.59392467 300.95604253 205.96098622 300.95054571 198.32817268 300.93343735 C191.6455422 300.91476604 184.96468945 300.87401372 178.28266907 300.78068542 C171.78426107 300.69256482 165.28835575 300.66854907 158.78940964 300.68706512 C156.32792815 300.68278713 153.86636847 300.65573209 151.40541458 300.60459137 C135.94678518 299.96535075 135.94678518 299.96535075 122.62554741 306.70593643 C120.40502127 308.90953647 118.36741478 311.19820362 116.41350937 313.6402359 C114.79287154 315.60186049 112.95290959 317.20698647 110.99214172 318.82121277 C107.84010945 321.54127488 104.75522645 324.32739948 101.67964172 327.13371277 C98.56057161 329.97895505 95.43208781 332.80570857 92.24214172 335.57121277 C88.83275592 338.53254787 85.50169862 341.57523763 82.17964172 344.63371277 C78.22101987 348.27785605 74.22787412 351.87284994 70.16401672 355.39933777 C66.1259091 358.92870742 62.15989984 362.53941908 58.17964172 366.13371277 C48.69092131 374.70231484 48.69092131 374.70231484 44.24214172 378.57121277 C40.04660951 382.22429233 35.94590619 385.97876826 31.83589172 389.72746277 C29.01241503 392.28520047 26.1490817 394.79141246 23.27339172 397.28996277 C20.71545145 399.54247733 18.19785192 401.83688369 15.67964172 404.13371277 C11.90040347 407.58025329 8.09345564 410.98531291 4.22651672 414.33293152 C2.65797783 415.71288654 1.10953435 417.1157125 -0.42973328 418.52824402 C-1.32176453 419.34679871 -2.21379578 420.16535339 -3.13285828 421.00871277 C-4.3645575 422.14953308 -4.3645575 422.14953308 -5.62113953 423.31340027 C-7.82035828 425.13371277 -7.82035828 425.13371277 -10.82035828 426.13371277 C-10.82035828 426.79371277 -10.82035828 427.45371277 -10.82035828 428.13371277 C-11.81035828 427.80371277 -12.80035828 427.47371277 -13.82035828 427.13371277 C-14.15035828 385.55371277 -14.48035828 343.97371277 -14.82035828 301.13371277 C-21.75035828 299.48371277 -28.68035828 297.83371277 -35.82035828 296.13371277 C-60.69164953 285.84214397 -78.72398385 269.24230938 -89.53910828 244.54777527 C-96.51279936 225.96543989 -95.97260869 207.02225428 -95.95317078 187.46183777 C-95.95384616 185.05166107 -95.95481813 182.64148445 -95.95606995 180.23130798 C-95.95753928 175.1881902 -95.95541926 170.14509019 -95.95072937 165.10197449 C-95.94506954 158.71171758 -95.94829209 152.32150303 -95.95430183 145.93124771 C-95.95795988 140.95137732 -95.95674451 135.97151653 -95.95417404 130.99164581 C-95.95351724 128.6398849 -95.95428836 126.28812304 -95.95665359 123.93636322 C-95.96615454 111.82379653 -95.85728232 99.72317396 -95.4370575 87.61711121 C-95.4067148 86.60968998 -95.37637211 85.60226875 -95.34510994 84.56431961 C-94.5375968 64.20333522 -86.62998647 45.16796836 -72.82035828 30.13371277 C-72.09590515 29.31773621 -71.37145203 28.50175964 -70.62504578 27.66105652 C-51.91301209 7.68302715 -26.83690067 -0.04343963 0 0 Z M-51.82426453 51.36027527 C-63.39667869 65.50711418 -65.97257001 80.92964332 -65.96562195 98.69328308 C-65.96898056 99.93338638 -65.97233917 101.17348969 -65.97579956 102.45117188 C-65.98364101 105.83364625 -65.98697535 109.21605921 -65.98761535 112.5985384 C-65.98832911 114.71801067 -65.99046958 116.83747663 -65.99311256 118.95694733 C-66.00234825 126.3689006 -66.00644976 133.78083596 -66.00566101 141.1927948 C-66.00506098 148.07282273 -66.01560271 154.95277206 -66.03140467 161.83278012 C-66.04453476 167.76344455 -66.04984261 173.69408347 -66.0492056 179.6247623 C-66.04895218 183.15626976 -66.05171628 186.68770731 -66.06238365 190.21920013 C-66.07397847 194.16501863 -66.06928452 198.11073165 -66.0632782 202.05656433 C-66.06889771 203.20709793 -66.07451721 204.35763153 -66.08030701 205.54302979 C-66.00774873 224.40461023 -61.11597956 240.39521213 -48.07035828 254.32121277 C-36.67507989 265.14891024 -21.83558158 271.30350737 -6.10942078 271.23136902 C-4.86547546 271.22814636 -3.62153015 271.22492371 -2.33988953 271.22160339 C-1.05469421 271.21322449 0.2305011 271.20484558 1.55464172 271.19621277 C2.86304016 271.19170105 4.1714386 271.18718933 5.51948547 271.18254089 C8.73958453 271.17078871 11.95958943 271.1543582 15.17964172 271.13371277 C15.17742111 271.81655838 15.1752005 272.49940399 15.1729126 273.20294189 C15.14603696 281.86735294 15.12787638 290.53176773 15.11714172 299.19621277 C15.11628571 299.88231125 15.11542969 300.56840973 15.11454773 301.27529907 C15.09214708 321.57700474 15.19635506 341.85081025 16.17964172 362.13371277 C19.21691131 360.76761009 21.38879199 359.20297469 23.78901672 356.90324402 C24.46190735 356.26451355 25.13479797 355.62578308 25.82807922 354.96769714 C26.52159485 354.3006073 27.21511047 353.63351746 27.92964172 352.94621277 C32.66131429 348.42593622 37.43077103 343.98563222 42.37593079 339.69889832 C44.67124259 337.70712193 46.92686874 335.67338561 49.17964172 333.63371277 C52.11642637 330.98257283 55.06566714 328.35081106 58.05464172 325.75871277 C61.48296365 322.77454591 64.83584973 319.71182793 68.17964172 316.63371277 C72.13558281 312.99208606 76.1252565 309.39871904 80.18745422 305.87590027 C82.53984808 303.81870878 84.85999138 301.72774362 87.17964172 299.63371277 C90.79640518 296.36980429 94.44353781 293.14580328 98.11714172 289.94621277 C101.27025556 287.17529455 104.38048712 284.35727166 107.49214172 281.53996277 C108.82245422 280.34886902 108.82245422 280.34886902 110.17964172 279.13371277 C110.6987764 278.56040317 111.21791107 277.98709356 111.7527771 277.39641094 C115.57482227 273.47359261 118.40653301 271.67010003 123.93135071 271.28088379 C126.17935439 271.25521353 128.42799857 271.26760631 130.67573547 271.31071472 C132.52625267 271.30418884 132.52625267 271.30418884 134.41415405 271.29753113 C137.0863869 271.29293433 139.7549908 271.30086635 142.42671204 271.3306675 C146.66621501 271.37758363 150.90479038 271.37380485 155.14448547 271.36349487 C162.62852196 271.3516977 170.11192785 271.38249848 177.59584045 271.4226532 C188.82861524 271.48246663 200.06141425 271.50679751 211.29433727 271.49440736 C215.49226912 271.49133165 219.68938183 271.50997966 223.88715935 271.54486793 C246.10402428 271.7095134 266.20888213 270.43284139 283.18745422 254.29386902 C295.99930753 240.40180063 300.65088946 224.71796294 300.58369446 206.12614441 C300.58941297 204.76616867 300.59638288 203.40619772 300.60449219 202.04623413 C300.62227483 198.38909313 300.62128376 194.732194 300.6155498 191.07502294 C300.6124364 188.00624862 300.61857405 184.93751933 300.62458855 181.86875147 C300.63858305 174.6218279 300.63711482 167.37502236 300.62568665 160.12809753 C300.61420836 152.68554601 300.62828767 145.24335498 300.65508312 137.80085093 C300.67732884 131.37835269 300.6838577 124.95596688 300.67800671 118.5334329 C300.67465728 114.71181716 300.67691656 110.8904324 300.69425774 107.06884956 C300.70986762 103.47264813 300.70561854 99.87697574 300.68695259 96.28079414 C300.6815848 94.35467294 300.69567291 92.42852714 300.71064758 90.50245667 C300.56649913 73.22789227 293.90890605 58.63085037 282.17964172 46.13371277 C265.08910225 30.24040899 244.73433674 29.53721637 222.66401672 29.61613464 C220.10488997 29.61070623 217.54576634 29.60357955 214.98664856 29.59489441 C208.78924949 29.57862331 202.59210498 29.58090098 196.39470291 29.59254497 C191.35274419 29.60162149 186.31083969 29.60278519 181.26887512 29.59844971 C180.54809367 29.59783677 179.82731222 29.59722384 179.0846889 29.59659234 C177.61990387 29.59531329 176.15511885 29.59401643 174.69033384 29.59270197 C160.99245048 29.58132749 147.29467463 29.59436049 133.59680891 29.61590344 C121.87306398 29.63377159 110.14947755 29.63066659 98.42573547 29.61222839 C84.77297996 29.59076608 71.1203184 29.58242583 57.46754837 29.59467745 C56.0085017 29.59595149 54.54945502 29.59720898 53.09040833 29.59844971 C52.37274693 29.59906681 51.65508554 29.59968391 50.91567683 29.60031971 C45.88657653 29.60375658 40.85753641 29.5979804 35.82844543 29.58853149 C29.04518965 29.57606549 22.26227691 29.58508753 15.47903442 29.60810852 C12.99876396 29.61336967 10.51846819 29.61192669 8.03820801 29.60305786 C-16.02645081 29.52498222 -34.93003165 32.5889054 -51.82426453 51.36027527 Z " fill="#34CCFC" transform="translate(96.82035827636719,1.8662872314453125)"/>
<path d="M0 0 C11.90553273 2.0000895 22.83991717 14.45314007 29.6875 23.8125 C45.33443028 47.28289543 45.31548689 72.18416033 45.265625 99.375 C45.26697596 101.9965824 45.26892006 104.61816455 45.27142334 107.23974609 C45.27503464 112.70607563 45.27033931 118.17235066 45.26074219 123.63867188 C45.24986315 129.90645659 45.25339076 136.17411105 45.264395 142.44189262 C45.27465905 148.53836629 45.27345289 154.63478345 45.26763153 160.73126221 C45.2663102 163.29534931 45.26788869 165.85943981 45.27259064 168.42352295 C45.31292526 196.5911372 45.10239595 222.82263994 24 244 C23.47019531 244.55300781 22.94039063 245.10601562 22.39453125 245.67578125 C4.69020191 262.56088713 -21.88731607 265.3918353 -45 265 C-44.99279434 266.11474197 -44.98558868 267.22948395 -44.97816467 268.37800598 C-44.92271615 280.97592657 -45.21299539 293.54622515 -45.62109375 306.13671875 C-45.68611378 308.19789653 -45.7509757 310.2590793 -45.81568909 312.32026672 C-45.95072793 316.59858746 -46.08797815 320.87682992 -46.22680664 325.1550293 C-46.40401322 330.62292769 -46.57505321 336.0909996 -46.74441433 341.55914593 C-46.87646729 345.7980858 -47.01201063 350.03690868 -47.14857674 354.27570534 C-47.21309377 356.29259474 -47.27648 358.30952066 -47.33868217 360.32648277 C-47.42589717 363.13925225 -47.51788942 365.95182742 -47.61108398 368.7644043 C-47.63554092 369.58476166 -47.65999786 370.40511902 -47.68519592 371.25033569 C-47.85608876 376.22274814 -48.3150118 381.07127097 -49 386 C-52.54120058 384.49089988 -54.81604365 382.42880686 -57.51953125 379.7109375 C-58.37740234 378.85113281 -59.23527344 377.99132812 -60.11914062 377.10546875 C-61.00794922 376.20441406 -61.89675781 375.30335938 -62.8125 374.375 C-63.68970703 373.49714844 -64.56691406 372.61929687 -65.47070312 371.71484375 C-69.18336153 367.97719362 -72.85011382 364.24260669 -76.26171875 360.2265625 C-81.78793092 353.79567751 -87.97614004 347.9586196 -94 342 C-108.08300182 328.06952166 -108.08300182 328.06952166 -113.30859375 321.9140625 C-116.99376834 317.74377255 -121.03709767 313.90375453 -125 310 C-130.2548469 304.82358365 -135.38394372 299.64087613 -140.18603516 294.04101562 C-143.83577554 289.93444367 -147.7844022 286.11367257 -151.6875 282.25 C-152.52861328 281.41339844 -153.36972656 280.57679688 -154.23632812 279.71484375 C-155.79399998 278.16581876 -157.35270556 276.61783197 -158.9128418 275.07128906 C-161 273 -161 273 -162.61560059 270.90367126 C-165.98301718 268.21517278 -169.10876486 268.43497286 -173.23754883 268.4699707 C-174.06569595 268.46123932 -174.89384308 268.45250793 -175.74708557 268.44351196 C-178.48395425 268.41912255 -181.22006763 268.42254863 -183.95703125 268.42578125 C-185.86269922 268.41333426 -187.76835571 268.39899952 -189.67399597 268.38285828 C-194.69367831 268.34479255 -199.71316343 268.3296411 -204.73297119 268.32006836 C-212.75673737 268.30034887 -220.78035281 268.24331527 -228.8039608 268.19130516 C-231.60180879 268.17601473 -234.39958166 268.16877674 -237.19746399 268.16316223 C-238.92306553 268.15614097 -240.64866675 268.14903966 -242.37426758 268.1418457 C-243.14697998 268.14237442 -243.91969238 268.14290314 -244.71582031 268.14344788 C-249.24230733 268.11850769 -253.53289587 267.74097596 -258 267 C-256.42035813 263.14972794 -253.96855605 260.75374465 -251.01953125 257.859375 C-250.28291512 257.13056122 -250.28291512 257.13056122 -249.53141785 256.38702393 C-247.96314352 254.83649697 -246.38836518 253.29280844 -244.8125 251.75 C-243.25530129 250.22069069 -241.6996917 248.68985053 -240.1471405 247.15582275 C-238.72618497 245.75251463 -237.30037088 244.35413111 -235.87426758 242.95605469 C-231.01975591 238.05777997 -226.61183182 232.79198616 -222.38745117 227.34703064 C-215.46612562 218.93566651 -209.3933514 213.18313989 -198.23301697 212.06017399 C-192.5841088 211.82543434 -186.9740195 211.87732774 -181.32461166 212.07177472 C-177.89812935 212.16906563 -174.47181336 212.15874994 -171.04418945 212.16038513 C-164.56168384 212.17867136 -158.08404815 212.28538271 -151.60320377 212.42790025 C-142.13526542 212.63218291 -132.66613118 212.70259654 -123.19639587 212.77211666 C-121.78286712 212.78268235 -120.36933867 212.79328977 -118.95581055 212.80393982 C-118.26408721 212.80898637 -117.57236387 212.81403293 -116.85967922 212.8192324 C-112.1682208 212.85691114 -107.47899491 212.93629177 -102.78833008 213.03065491 C-75.3640046 213.50656923 -46.84781326 210.08554942 -26.07666016 190.27001953 C-10.19741364 174.36905781 -2.83141847 153.17892501 -0.87548828 131.14013672 C-0.79197176 130.20057066 -0.70845524 129.2610046 -0.62240791 128.29296684 C0.37872934 115.81673852 0.24824619 103.32733106 0.1953125 90.8203125 C0.19157161 88.18374744 0.18872974 85.54718097 0.18673706 82.91061401 C0.18059469 76.74539164 0.16428537 70.58024274 0.14403808 64.41505229 C0.12144923 57.37961992 0.11062873 50.34418347 0.10064721 43.30872369 C0.07990994 28.87244508 0.04487986 14.43622357 0 0 Z " fill="#33CCFD" transform="translate(454,111)"/>
<path d="M0 0 C5.70400154 4.40934329 9.61665725 9.34693801 11.6875 16.3125 C12.71632332 25.16038057 12.00203194 32.69097535 6.45703125 40.046875 C0.67179304 46.24250769 -6.24723711 49.67777879 -14.6875 50.25 C-23.13407589 50.06229831 -28.96778915 46.95591709 -35.05078125 41.19140625 C-40.06301273 35.55641254 -42.42399573 28.88051887 -42.26953125 21.33984375 C-41.36113522 13.45391302 -38.21248751 6.98599891 -32.33984375 1.66015625 C-21.98667457 -5.68558148 -11.02491295 -5.73680063 0 0 Z " fill="#34CBFC" transform="translate(229,133)"/>
<path d="M0 0 C6.49874896 4.41066295 10.6781361 9.50692112 12.52734375 17.19140625 C13.89262108 26.01201822 11.73096355 32.87910643 6.57421875 40.05859375 C2.13126611 45.53786785 -3.96587894 49.14218036 -11 50 C-18.39425395 50.73942539 -25.33826602 48.64865425 -31.34375 44.3046875 C-37.67383045 38.47062082 -41.06717119 31.62952433 -41.5 23 C-41.17609313 15.65425492 -38.30780848 8.16036935 -33 3 C-22.44189059 -4.90125474 -11.64430474 -6.26574493 0 0 Z " fill="#33CCFC" transform="translate(336,133)"/>
<path d="M0 0 C5.71558812 4.41830002 9.66116461 9.3749323 11.6875 16.375 C12.68836222 24.78224264 12.0460982 31.55204155 7.18359375 38.65234375 C1.0878482 46.07846668 -5.08192651 49.27321905 -14.5625 50.4375 C-23.4904426 49.3012164 -29.92268112 46.83522932 -36 40 C-41.35759087 32.56148977 -41.88703709 24.95288602 -41 16 C-38.82296277 8.63469647 -34.41727979 3.15507324 -28 -1 C-18.43121566 -5.68402031 -9.32739561 -4.85349946 0 0 Z " fill="#35CBFB" transform="translate(121,133)"/>
<path d="M0 0 C-3.38341191 3.05760187 -6.21604753 3.57420518 -10.6875 4.125 C-14.66520477 4.30257776 -14.66520477 4.30257776 -18 6 C-19.6334903 6.10170657 -21.27137268 6.13352847 -22.90802002 6.13803101 C-23.97076645 6.14348434 -25.03351288 6.14893768 -26.12846375 6.15455627 C-27.30455704 6.1555986 -28.48065033 6.15664093 -29.69238281 6.15771484 C-31.53860985 6.16533592 -31.53860985 6.16533592 -33.4221344 6.17311096 C-36.10569965 6.18384318 -38.78921247 6.19283577 -41.47278595 6.19923019 C-45.71690531 6.20989236 -49.96094443 6.23013338 -54.20501709 6.25234985 C-66.27580075 6.31433087 -78.34658058 6.36826557 -90.41748047 6.40136719 C-97.0794117 6.41971649 -103.74120945 6.44865864 -110.40304255 6.4893719 C-113.92940662 6.51044172 -117.45560244 6.52589905 -120.98203278 6.52817917 C-124.91817469 6.53072701 -128.85398706 6.55619631 -132.79003906 6.58349609 C-133.95803543 6.58048996 -135.1260318 6.57748383 -136.329422 6.5743866 C-137.40344772 6.58547958 -138.47747345 6.59657257 -139.58404541 6.60800171 C-140.5146793 6.61131186 -141.44531319 6.614622 -142.4041481 6.61803246 C-146.19684046 7.17610951 -148.89731506 8.8289315 -151.51171875 11.60546875 C-151.89972656 12.12753906 -152.28773438 12.64960938 -152.6875 13.1875 C-153.450625 14.115625 -154.21375 15.04375 -155 16 C-155.66 16 -156.32 16 -157 16 C-157.33 16.99 -157.66 17.98 -158 19 C-159.99107248 20.01765927 -161.99218823 21.01577854 -164 22 C-166.31418291 24.06167261 -166.31418291 24.06167261 -168 26 C-168.66 25.67 -169.32 25.34 -170 25 C-167.48158357 22.62242649 -164.959823 20.24842816 -162.4375 17.875 C-161.38079102 16.87726563 -161.38079102 16.87726563 -160.30273438 15.859375 C-159.60341797 15.20195312 -158.90410156 14.54453125 -158.18359375 13.8671875 C-157.54993896 13.27019043 -156.91628418 12.67319336 -156.26342773 12.05810547 C-155.51649658 11.37893066 -154.76956543 10.69975586 -154 10 C-153.56540215 9.50878033 -153.13080429 9.01756065 -152.6830368 8.51145554 C-149.14550945 4.87091225 -146.45786373 3.57935738 -141.36854553 3.26742554 C-139.118277 3.24458226 -136.86752781 3.25450628 -134.61743164 3.29052734 C-133.38389954 3.28632278 -132.15036743 3.28211823 -130.87945557 3.27778625 C-128.20486101 3.27272929 -125.53289615 3.27842339 -122.85865974 3.30268478 C-118.61507635 3.34074604 -114.37222138 3.33488249 -110.12852478 3.32315063 C-101.87110576 3.30632883 -93.61412919 3.33432497 -85.35678101 3.36656952 C-74.87983707 3.40506771 -64.40297378 3.42100038 -53.92597479 3.40136492 C-50.40646044 3.39595212 -46.88743683 3.39957795 -43.36799812 3.42472458 C-23.75225324 3.66763121 -23.75225324 3.66763121 -4.65696716 -0.23666382 C-2 -1 -2 -1 0 0 Z " fill="#53CEF7" transform="translate(362,269)"/>
<path d="M0 0 C1.14635734 3.43907203 0.78873513 4.86866794 0.0776825 8.37414551 C-1.0988702 14.97052491 -1.2757605 21.32664099 -1.24291992 28.01367188 C-1.24481827 29.25435928 -1.24671661 30.49504669 -1.24867249 31.77333069 C-1.25171763 35.13911469 -1.24593248 38.50464744 -1.23571944 41.87040138 C-1.22684689 45.41616248 -1.22869817 48.96192049 -1.2290802 52.50769043 C-1.22814745 58.45876284 -1.21951697 64.40978385 -1.20581055 70.36083984 C-1.19008929 77.21139362 -1.18481272 84.06189124 -1.1855461 90.91246176 C-1.18622506 98.24907749 -1.17926511 105.58567199 -1.1700995 112.92228127 C-1.1679827 115.01743782 -1.16726032 117.11259089 -1.16686058 119.20774841 C-1.16565611 123.13396129 -1.15589212 127.06012898 -1.14526367 130.98632812 C-1.14594345 132.70270226 -1.14594345 132.70270226 -1.14663696 134.45375061 C-1.11821658 141.68101609 -0.70892856 148.80765728 0 156 C-0.66 156 -1.32 156 -2 156 C-3.93010678 148.2341391 -4.28072784 140.84947922 -4.24291992 132.87109375 C-4.24481827 131.59512833 -4.24671661 130.3191629 -4.24867249 129.00453186 C-4.25347886 125.53604332 -4.24592115 122.0676854 -4.23571944 118.59921265 C-4.22688161 114.96067473 -4.22869741 111.32214021 -4.2290802 107.68359375 C-4.22814693 101.58445063 -4.21950369 95.4853576 -4.20581055 89.38623047 C-4.19003217 82.33216252 -4.18481456 75.27814914 -4.1855461 68.22406483 C-4.18622062 60.70413249 -4.1792913 53.18422119 -4.1700995 45.6642952 C-4.16796713 43.49835378 -4.16725821 41.33241576 -4.16686058 39.16647339 C-4.16567259 35.14220589 -4.15597403 31.11800341 -4.14526367 27.09375 C-4.14571686 25.89170425 -4.14617004 24.68965851 -4.14663696 23.45118713 C-4.14237198 22.36063522 -4.13810699 21.27008331 -4.13371277 20.14648438 C-4.13203692 19.1952771 -4.13036108 18.24406982 -4.12863445 17.26403809 C-4 15 -4 15 -3 13 C-2.7724985 11.12943209 -2.59037189 9.25314042 -2.4375 7.375 C-2.35371094 6.37210937 -2.26992188 5.36921875 -2.18359375 4.3359375 C-2.12300781 3.56507812 -2.06242187 2.79421875 -2 2 C-1.34 2 -0.68 2 0 2 C0 1.34 0 0.68 0 0 Z " fill="#54C3E6" transform="translate(33,73)"/>
<path d="M0 0 C0.96589798 -0.0039821 1.93179595 -0.00796419 2.92696357 -0.01206696 C4.51450269 -0.00332844 4.51450269 -0.00332844 6.13411331 0.00558662 C7.26050791 0.00387777 8.38690251 0.00216892 9.54743028 0.00040829 C13.33544215 -0.00289545 17.1232783 0.00813179 20.91127396 0.01904488 C23.62119026 0.02072148 26.33110309 0.01938094 29.04101944 0.01815987 C34.88230851 0.01711076 40.72355294 0.02339002 46.56483078 0.03463554 C55.01034906 0.05088413 63.45584573 0.05609789 71.90137795 0.05861153 C85.60341933 0.06298964 99.30543691 0.07630189 113.00746536 0.09521675 C126.31833655 0.11357255 139.62920127 0.12773052 152.94008255 0.13623238 C153.76045544 0.13675782 154.58082833 0.13728327 155.426061 0.13782464 C159.54159802 0.1404347 163.65713508 0.14296212 167.77267218 0.14544845 C201.91947584 0.16618456 236.06625124 0.20141325 270.21303177 0.24609566 C270.21303177 0.90609566 270.21303177 1.56609566 270.21303177 2.24609566 C272.19303177 2.74109566 272.19303177 2.74109566 274.21303177 3.24609566 C271.68037617 4.51242346 270.95646413 4.05799612 268.27228642 3.32446861 C262.89685582 2.05119185 257.76924419 1.96719804 252.26495743 1.99212837 C251.19584368 1.98900839 250.12672992 1.98588841 249.02521878 1.98267388 C245.46040618 1.97472807 241.89576542 1.98100432 238.33095169 1.98730659 C235.76784541 1.98459517 233.20473992 1.98103339 230.64163589 1.97668648 C224.41239958 1.96852218 218.18322636 1.96970549 211.95398923 1.97551176 C206.88755982 1.98003764 201.82114391 1.98063715 196.75471306 1.97846413 C196.0322525 1.97815766 195.30979194 1.97785119 194.56543863 1.97753544 C193.09750721 1.97689595 191.62957579 1.97624753 190.16164438 1.97559026 C176.40954398 1.96989272 162.65747028 1.97643517 148.90537427 1.98719099 C137.12436846 1.99612028 125.34340209 1.99457848 113.562397 1.98535347 C99.86248972 1.97463082 86.16260584 1.97044797 72.46269494 1.976578 C70.99939589 1.97721505 69.53609683 1.97784379 68.07279778 1.97846413 C67.35294432 1.97877268 66.63309086 1.97908123 65.89142367 1.97939913 C60.83695566 1.98112052 55.78250258 1.97822288 50.72803688 1.97350502 C43.91295095 1.96728333 37.09794038 1.97176478 30.28286171 1.98329353 C27.78681944 1.98592983 25.29077088 1.98519271 22.79473114 1.9807682 C19.37708988 1.97527038 15.9596835 1.98219822 12.54205704 1.99212837 C11.56372176 1.98766693 10.58538648 1.98320549 9.57740468 1.97860885 C2.63185161 2.01751842 -3.970898 2.93421939 -10.78696823 4.24609566 C-7.43977092 0.89889834 -4.69020645 -0.00427159 0 0 Z " fill="#57C2E5" transform="translate(81.78696823120117,30.753904342651367)"/>
<path d="M0 0 C32.35755524 -0.04569332 64.71510125 -0.08105445 97.07268125 -0.10213066 C100.89879602 -0.10463186 104.72491072 -0.10722053 108.55102539 -0.10986328 C109.69351948 -0.11065021 109.69351948 -0.11065021 110.85909425 -0.11145304 C123.16770366 -0.12013924 135.47629424 -0.13589931 147.78489251 -0.15430559 C160.42867252 -0.17305444 173.07244272 -0.18412723 185.71623605 -0.18817699 C193.50874252 -0.19091174 201.30119578 -0.19952741 209.09368586 -0.21583293 C215.08400631 -0.22772369 221.07428166 -0.22889882 227.06461525 -0.22621536 C229.51101762 -0.22676292 231.95742211 -0.23070544 234.40381241 -0.23841095 C266.332012 -0.333994 266.332012 -0.333994 275 4 C269.06 3.67 263.12 3.34 257 3 C256.67 3.99 256.34 4.98 256 6 C255.01 6 254.02 6 253 6 C252.67 4.68 252.34 3.36 252 2 C127.26 1.505 127.26 1.505 0 1 C0 0.67 0 0.34 0 0 Z " fill="#4ABBD2" transform="translate(86,2)"/>
<path d="M0 0 C3.00080159 3.00080159 2.32469647 6.36556592 2.35058594 10.39355469 C2.36384415 11.26203033 2.37710236 12.13050598 2.39076233 13.02529907 C2.43197232 15.90745757 2.45862489 18.78953981 2.484375 21.671875 C2.50816133 23.67247182 2.53252196 25.6730619 2.55743408 27.67364502 C2.60742179 31.87353448 2.65018557 36.07342123 2.68798828 40.2734375 C2.73700233 45.65158793 2.80411613 51.02933024 2.87673569 56.40720749 C2.93050443 60.54214771 2.97444044 64.67714826 3.01544952 68.81223297 C3.0363216 70.79456287 3.06027999 72.77686279 3.08739471 74.75911713 C3.12392873 77.53570992 3.14717259 80.31211139 3.16699219 83.08886719 C3.18039139 83.90571991 3.19379059 84.72257263 3.20759583 85.56417847 C3.22426311 90.14553438 2.6472615 93.6631592 1 98 C0.77940107 100.37659026 0.64711756 102.76241525 0.5859375 105.1484375 C0.56657135 105.80582916 0.5472052 106.46322083 0.5272522 107.14053345 C0.46797539 109.21856135 0.42128206 111.29664624 0.375 113.375 C0.33677222 114.7929915 0.29771777 116.21096097 0.2578125 117.62890625 C0.16231829 121.08573461 0.07809811 124.54272983 0 128 C-0.66 128.33 -1.32 128.66 -2 129 C-1.95875 129.928125 -1.9175 130.85625 -1.875 131.8125 C-2 135 -2 135 -4 138 C-4.66 138 -5.32 138 -6 138 C-6.33 139.98 -6.66 141.96 -7 144 C-7.99 144.33 -8.98 144.66 -10 145 C-9.74476563 144.195625 -9.74476563 144.195625 -9.484375 143.375 C-8.62389073 140.59215727 -7.80878415 137.79832491 -7 135 C-6.66355469 133.86046875 -6.32710938 132.7209375 -5.98046875 131.546875 C-3.91499673 124.02762856 -2.583708 116.68392784 -1.90478516 108.91357422 C-1.82050074 107.96072981 -1.73621632 107.0078854 -1.64937782 106.02616692 C-0.76240865 95.23417004 -0.64715788 84.45537639 -0.5859375 73.6328125 C-0.56716079 71.48948476 -0.54758296 69.3461639 -0.5272522 67.20285034 C-0.47661015 61.6432304 -0.43662768 56.08358666 -0.39910889 50.52386475 C-0.3586355 44.8179367 -0.30774432 39.11210173 -0.2578125 33.40625 C-0.16186109 22.27089936 -0.07720631 11.13549532 0 0 Z " fill="#50C5EA" transform="translate(455,133)"/>
<path d="M0 0 C3.49631756 0.08203701 6.99282607 0.08896224 10.48995757 0.1043303 C17.09242413 0.14451726 23.6920462 0.25087832 30.29326767 0.38187367 C37.81660085 0.52788192 45.34007999 0.59882934 52.86448038 0.66391432 C68.32423093 0.79929809 83.78115335 1.02750667 99.23881316 1.31812119 C99.23881316 1.97812119 99.23881316 2.63812119 99.23881316 3.31812119 C98.59681724 3.31590058 97.95482131 3.31367997 97.29337096 3.31139207 C81.6514264 3.26004194 66.01017692 3.25296002 50.36823058 3.29477525 C42.80374398 3.31393656 35.23979799 3.31827216 27.6753366 3.28735948 C21.07987349 3.26044466 14.48511078 3.26170012 7.88967347 3.29638028 C4.39912409 3.31376116 0.90982865 3.31730845 -2.5806601 3.28708482 C-6.4832329 3.25382201 -10.38398873 3.28347149 -14.28657746 3.31812119 C-15.43600831 3.29870973 -16.58543916 3.27929826 -17.76970124 3.25929856 C-23.72815694 3.36727509 -27.0725827 3.93864116 -31.41584992 8.19312119 C-33.41000028 10.48944714 -35.07074219 12.78245423 -36.76118684 15.31812119 C-37.75118684 14.98812119 -38.74118684 14.65812119 -39.76118684 14.31812119 C-29.66846937 -1.11837879 -17.17944904 -0.47192644 0 0 Z " fill="#57C3E5" transform="translate(272.76118683815,323.6818788051605)"/>
<path d="M0 0 C1.29550781 0.21849609 1.29550781 0.21849609 2.6171875 0.44140625 C4.76601435 0.79623563 6.91692663 1.13882223 9.0703125 1.46484375 C10.07835938 1.62082031 11.08640625 1.77679688 12.125 1.9375 C13.13820313 2.09089844 14.15140625 2.24429687 15.1953125 2.40234375 C18 3 18 3 19.9296875 4.00390625 C22.8526914 5.41025718 25.80265435 5.5847573 29 6 C29.02325944 19.69200307 29.04098404 33.38400137 29.05181217 47.07602024 C29.05701139 53.43504603 29.06405476 59.79405821 29.07543945 66.15307617 C29.08637419 72.299841 29.09229909 78.44659281 29.09487724 84.59336662 C29.09671253 86.92827496 29.10029605 89.26318266 29.10573006 91.5980854 C29.13291912 103.77466643 29.08563912 115.86439956 28 128 C27.67 128 27.34 128 27 128 C26.67 88.4 26.34 48.8 26 8 C19.07 6.35 12.14 4.7 5 3 C2.525 2.01 2.525 2.01 0 1 C0 0.67 0 0.34 0 0 Z " fill="#56BDE9" transform="translate(56,295)"/>
<path d="M0 0 C4.64812294 3.76874833 5.92938557 7.10591808 7.32421875 12.890625 C7.54722656 13.58671875 7.77023437 14.2828125 8 15 C8.66 15.33 9.32 15.66 10 16 C10.04672788 35.45393604 10.08199272 54.90786068 10.10362434 74.3618412 C10.1139354 83.39472963 10.12799248 92.42758318 10.15087891 101.46044922 C10.17081799 109.3338083 10.18371768 117.20714213 10.18817699 125.08052576 C10.19078348 129.24912606 10.19690637 133.4176541 10.21146011 137.58623123 C10.22505219 141.51122683 10.22921935 145.4361205 10.22621536 149.36113739 C10.2267648 150.80024901 10.23073258 152.23936411 10.23841095 153.67845535 C10.24839708 155.6469093 10.24476919 157.61541815 10.24050903 159.58389282 C10.24235262 160.68451365 10.24419621 161.78513447 10.24609566 162.91910744 C9.98260729 166.21774082 9.16912018 168.91509272 8 172 C7.21142672 169.63428017 6.96146662 168.18958603 7.46345806 165.71976471 C8.03866232 162.80401826 8.13461167 160.14224523 8.14717102 157.17126465 C8.15432632 156.00519684 8.16148163 154.83912903 8.16885376 153.63772583 C8.17154266 152.3670224 8.17423157 151.09631897 8.17700195 149.78710938 C8.18327232 148.42817005 8.18991963 147.06923242 8.19691467 145.71029663 C8.21789782 141.25479309 8.22831502 136.79928946 8.23828125 132.34375 C8.24233163 130.80461103 8.24644864 129.26547223 8.25063133 127.72633362 C8.26967424 120.48989299 8.28390441 113.25346248 8.2922433 106.01700163 C8.30199794 97.69140683 8.32827459 89.36607915 8.36874419 81.04057837 C8.39901947 74.58852092 8.41372312 68.13653952 8.41702431 61.68441248 C8.41936275 57.83918537 8.42816354 53.99424388 8.45348549 50.14909363 C8.47697071 46.52430317 8.48091872 42.89998221 8.47072411 39.27513504 C8.47000199 37.33221629 8.48895055 35.38932028 8.50878906 33.44650269 C8.44109388 21.85859891 5.37458738 12.17332611 0 2 C0 1.34 0 0.68 0 0 Z " fill="#6BBFDB" transform="translate(388,59)"/>
<path d="M0 0 C-7.66140948 6.70361959 -20.80056784 5.28616233 -30.40942383 5.22705078 C-32.31421761 5.22748886 -32.31421761 5.22748886 -34.25749207 5.22793579 C-37.6946879 5.22850284 -41.13174031 5.21685522 -44.56890321 5.20278788 C-48.17765693 5.19017086 -51.786415 5.18910146 -55.39518738 5.18673706 C-62.2088178 5.18055419 -69.02238301 5.16418725 -75.83598489 5.14403808 C-83.60154656 5.12157887 -91.36711157 5.11066061 -99.1326977 5.10064721 C-115.08850272 5.07981767 -131.04424291 5.04470475 -147 5 C-147 4.67 -147 4.34 -147 4 C-146.34991722 3.99853344 -145.69983444 3.99706688 -145.03005219 3.99555588 C-129.1433775 3.95835241 -113.2569552 3.89916034 -97.37046051 3.81609726 C-89.687563 3.77644614 -82.00476585 3.74398348 -74.32177734 3.72900391 C-67.61795817 3.71591457 -60.91436112 3.68876688 -54.21066713 3.64538693 C-50.66769813 3.62293394 -47.1250014 3.60707945 -43.58195496 3.60811615 C-23.85309423 3.70977167 -23.85309423 3.70977167 -4.64831543 -0.24407959 C-2 -1 -2 -1 0 0 Z " fill="#65BAD7" transform="translate(362,269)"/>
<path d="M0 0 C0.66 0 1.32 0 2 0 C2.11379311 15.44785194 2.0357982 30.87168083 1.5625 46.3125 C1.54285187 46.99231934 1.52320374 47.67213867 1.50296021 48.37255859 C1.29866729 55.30486332 1.03496405 62.13792744 0 69 C-3.16115776 67.63016497 -3.9927092 67.0109362 -6 64 C-4.35 64.33 -2.7 64.66 -1 65 C-1.00523682 64.3100293 -1.01047363 63.62005859 -1.01586914 62.90917969 C-1.15138123 41.9202441 -0.67695289 20.97653749 0 0 Z " fill="#5AC6E9" transform="translate(405,428)"/>
<path d="M0 0 C0.66 0.33 1.32 0.66 2 1 C-2.11373253 5.22943125 -6.33779697 9.24830209 -10.8125 13.09375 C-14.20636443 16.05126043 -17.49824691 19.12082524 -20.80078125 22.1796875 C-23 24 -23 24 -26 25 C-26 25.66 -26 26.32 -26 27 C-26.99 26.67 -27.98 26.34 -29 26 C-29 25.01 -29 24.02 -29 23 C-27.02 22.67 -25.04 22.34 -23 22 C-23 19.69 -23 17.38 -23 15 C-22.01 15.66 -21.02 16.32 -20 17 C-19.01 16.67 -18.02 16.34 -17 16 C-17 15.34 -17 14.68 -17 14 C-16.34 14 -15.68 14 -15 14 C-14.62875 12.7934375 -14.62875 12.7934375 -14.25 11.5625 C-13 9 -13 9 -10.875 8.1875 C-10.25625 8.125625 -9.6375 8.06375 -9 8 C-9 7.34 -9 6.68 -9 6 C-7.68 6 -6.36 6 -5 6 C-4.731875 5.38125 -4.46375 4.7625 -4.1875 4.125 C-3 2 -3 2 0 0 Z " fill="#4EC8EC" transform="translate(112,403)"/>
<path d="M0 0 C0.33 0 0.66 0 1 0 C1.60927802 42.09642475 1.60927802 42.09642475 -5 58 C-5.66 58.66 -6.32 59.32 -7 60 C-8 59 -8 59 -8.0625 56.4375 C-8.041875 55.633125 -8.02125 54.82875 -8 54 C-7.01 54 -6.02 54 -5 54 C-5.33 52.02 -5.66 50.04 -6 48 C-5.01 48 -4.02 48 -3 48 C-3.020625 46.700625 -3.04125 45.40125 -3.0625 44.0625 C-3.08399454 42.70834367 -3.07148199 41.35243917 -3 40 C-2.505 39.505 -2.505 39.505 -2 39 C-1.8534879 37.14273252 -1.77250071 35.28023058 -1.71875 33.41796875 C-1.68136719 32.25716797 -1.64398438 31.09636719 -1.60546875 29.90039062 C-1.55326172 28.06250977 -1.55326172 28.06250977 -1.5 26.1875 C-1.24219808 17.42700889 -0.82569749 8.72694108 0 0 Z " fill="#5CB4F3" transform="translate(498,276)"/>
<path d="M0 0 C-4.62 0.33 -9.24 0.66 -14 1 C-14 1.66 -14 2.32 -14 3 C-14.66 3 -15.32 3 -16 3 C-16.66 4.32 -17.32 5.64 -18 7 C-18.66 7 -19.32 7 -20 7 C-20.33 6.34 -20.66 5.68 -21 5 C-22.98 5.99 -22.98 5.99 -25 7 C-25 7.66 -25 8.32 -25 9 C-25.66 9 -26.32 9 -27 9 C-27.33 9.99 -27.66 10.98 -28 12 C-30.0625 13.1875 -30.0625 13.1875 -32 14 C-30.55719424 8.7097122 -27.29013079 5.23291999 -23 2 C-15.34191218 -1.89741969 -7.95516283 -3.97758141 0 0 Z " fill="#47C6EC" transform="translate(222,131)"/>
<path d="M0 0 C5.13711186 -0.05016334 10.27407514 -0.08607287 15.41137695 -0.10986328 C17.15196217 -0.11980124 18.89253125 -0.13335628 20.63305664 -0.15087891 C48.15867967 -0.42066016 48.15867967 -0.42066016 57 4 C51.06 3.67 45.12 3.34 39 3 C38.67 3.99 38.34 4.98 38 6 C37.01 6 36.02 6 35 6 C34.505 4.02 34.505 4.02 34 2 C22.78 1.67 11.56 1.34 0 1 C0 0.67 0 0.34 0 0 Z " fill="#49BFEA" transform="translate(304,2)"/>
<path d="M0 0 C4.98015923 0.99603185 7.48922022 2.52896209 11.3125 5.5625 C11.86228516 5.98724609 12.41207031 6.41199219 12.97851562 6.84960938 C14.3251827 7.89181259 15.66346201 8.94483843 17 10 C16.01 10.495 16.01 10.495 15 11 C11.4375 9.75 11.4375 9.75 8 8 C7.67 7.01 7.34 6.02 7 5 C5.35 4.67 3.7 4.34 2 4 C2 5.65 2 7.3 2 9 C3.65 9.33 5.3 9.66 7 10 C6.360625 10.433125 5.72125 10.86625 5.0625 11.3125 C2.73253997 12.91239177 2.73253997 12.91239177 2 16 C1.34 16 0.68 16 0 16 C0 10.72 0 5.44 0 0 Z " fill="#44C5EF" transform="translate(454,111)"/>
<path d="M0 0 C-1.39077301 0.82113177 -2.78788893 1.63152495 -4.1875 2.4375 C-4.96480469 2.88996094 -5.74210937 3.34242188 -6.54296875 3.80859375 C-12.85670165 6.87010176 -19.37754108 6.68322024 -25.9375 4.5 C-27.29543517 4.01032722 -28.65104264 3.51388852 -30 3 C-30 2.67 -30 2.34 -30 2 C-28.33388095 1.957279 -26.66617115 1.95936168 -25 2 C-24.67 2.33 -24.34 2.66 -24 3 C-22.14712498 3.07226502 -20.29166122 3.0838122 -18.4375 3.0625 C-17.42558594 3.05347656 -16.41367187 3.04445312 -15.37109375 3.03515625 C-14.58863281 3.02355469 -13.80617188 3.01195312 -13 3 C-12.67 2.34 -12.34 1.68 -12 1 C-9.525 1.495 -9.525 1.495 -7 2 C-7 1.34 -7 0.68 -7 0 C-3.98968256 -0.93423645 -3.13349732 -1.04449911 0 0 Z " fill="#5DC5EC" transform="translate(339,177)"/>
<path d="M0 0 C0.66 0.33 1.32 0.66 2 1 C0.5484451 2.67257355 -0.91144409 4.33791758 -2.375 6 C-3.18710938 6.928125 -3.99921875 7.85625 -4.8359375 8.8125 C-5.55007812 9.534375 -6.26421875 10.25625 -7 11 C-7.66 11 -8.32 11 -9 11 C-9.33 11.99 -9.66 12.98 -10 14 C-11.99107248 15.01765927 -13.99218823 16.01577854 -16 17 C-18.31418291 19.06167261 -18.31418291 19.06167261 -20 21 C-20.66 20.67 -21.32 20.34 -22 20 C-19.46098715 17.6013414 -16.91831232 15.20659872 -14.375 12.8125 C-13.66214844 12.13896484 -12.94929687 11.46542969 -12.21484375 10.77148438 C-8.24560203 7.03894055 -4.22934024 3.43550509 0 0 Z " fill="#51C6EC" transform="translate(214,274)"/>
<path d="M0 0 C1.79296875 1.63671875 1.79296875 1.63671875 3 3 C1.51965236 2.52449439 0.04074979 2.04448784 -1.4375 1.5625 C-2.26121094 1.29566406 -3.08492188 1.02882812 -3.93359375 0.75390625 C-6 0 -6 0 -7 -1 C-11.54950416 -1.26247139 -14.88439805 -0.99544337 -19 1 C-19.66 0.34 -20.32 -0.32 -21 -1 C-24.09926819 -0.67801034 -24.09926819 -0.67801034 -27 0 C-19.67986665 -7.32013335 -8.03857523 -4.26915452 0 0 Z " fill="#50C2E8" transform="translate(336,133)"/>
<path d="M0 0 C5.91267797 0.48948582 10.22546968 2.30150681 15.4375 5.0625 C16.16904297 5.43955078 16.90058594 5.81660156 17.65429688 6.20507812 C19.44093953 7.12759296 21.22115829 8.0625312 23 9 C22.01 9.33 21.02 9.66 20 10 C19.01 9.34 18.02 8.68 17 8 C14.94290404 7.75944532 14.94290404 7.75944532 12.8125 7.875 C11.554375 7.91625 10.29625 7.9575 9 8 C8.67 8.66 8.34 9.32 8 10 C7.67 9.01 7.34 8.02 7 7 C7.66 6.34 8.32 5.68 9 5 C4.545 3.02 4.545 3.02 0 1 C0 0.67 0 0.34 0 0 Z " fill="#52C3EB" transform="translate(361,6)"/>
<path d="M0 0 C0.33 0.66 0.66 1.32 1 2 C0.04956626 3.33897583 -0.91059147 4.67105427 -1.875 6 C-2.40867188 6.7425 -2.94234375 7.485 -3.4921875 8.25 C-3.98976562 8.8275 -4.48734375 9.405 -5 10 C-5.66 10 -6.32 10 -7 10 C-7.28875 10.61875 -7.5775 11.2375 -7.875 11.875 C-9 14 -9 14 -11 16 C-12.32 15.67 -13.64 15.34 -15 15 C-10.05 10.05 -5.1 5.1 0 0 Z " fill="#4BC7F3" transform="translate(213,359)"/>
<path d="M0 0 C3.49565795 4.19290509 4.01709232 7.63301268 4 13 C2.97864769 21.02135231 2.97864769 21.02135231 0 24 C0 16 0 8 0 0 Z " fill="#4DC8F3" transform="translate(345,144)"/>
<path d="M0 0 C0.33 0.66 0.66 1.32 1 2 C0.0625 4.625 0.0625 4.625 -1 7 C-1.99 6.67 -2.98 6.34 -4 6 C-4.33 7.65 -4.66 9.3 -5 11 C-5.721875 11.061875 -6.44375 11.12375 -7.1875 11.1875 C-10.84657625 12.24456647 -12.49211602 14.20550071 -15 17 C-15.66 16.67 -16.32 16.34 -17 16 C-12.35344118 11.24222036 -7.61171109 6.68207665 -2.56640625 2.34765625 C-1.68751602 1.59150381 -0.81982149 0.81982149 0 0 Z " fill="#4FC4EA" transform="translate(170,313)"/>
<path d="M0 0 C0 0.99 0 1.98 0 3 C-5.34883721 8 -5.34883721 8 -8 8 C-8 8.66 -8 9.32 -8 10 C-8.598125 10.268125 -9.19625 10.53625 -9.8125 10.8125 C-12.03033235 11.88236968 -12.03033235 11.88236968 -13.5625 13.5625 C-15 15 -15 15 -18 16 C-20.1875 15.0625 -20.1875 15.0625 -22 14 C-20.49759766 13.23816406 -20.49759766 13.23816406 -18.96484375 12.4609375 C-12.00559191 8.87605366 -5.65407397 5.51616973 0 0 Z " fill="#5BC1E6" transform="translate(427,302)"/>
<path d="M0 0 C0.598125 0.309375 1.19625 0.61875 1.8125 0.9375 C4.08956772 2.10209704 4.08956772 2.10209704 7 3 C7 3.66 7 4.32 7 5 C7.78375 5.165 8.5675 5.33 9.375 5.5 C12 7 12 7 12.77734375 8.9140625 C13.26413052 10.92516699 13.63853255 12.962638 14 15 C8.79814679 10.75358921 4.15632577 6.29331458 0 1 C0 0.67 0 0.34 0 0 Z " fill="#51C9EC" transform="translate(376,468)"/>
<path d="M0 0 C0.99 0.33 1.98 0.66 3 1 C1.27744283 2.46613447 -0.45333784 3.92261056 -2.1875 5.375 C-3.15042969 6.18710937 -4.11335938 6.99921875 -5.10546875 7.8359375 C-7.73115596 9.79900189 -9.91175041 10.9724654 -13 12 C-13 10.35 -13 8.7 -13 7 C-8.25 5.875 -8.25 5.875 -6 7 C-6.33 6.01 -6.66 5.02 -7 4 C-4.35261084 2.5393715 -3.10551666 2 0 2 C0 1.34 0 0.68 0 0 Z " fill="#4EC7ED" transform="translate(397,277)"/>
<path d="M0 0 C4.24414588 4.82289304 5.40620802 10.53035546 5.26953125 16.8671875 C4.77783427 20.75800706 3.41556041 24.35998752 2 28 C1.67 27.01 1.34 26.02 1 25 C1.33 24.34 1.66 23.68 2 23 C2.12283119 20.66906388 2.17554232 18.33413961 2.1875 16 C2.20167969 14.741875 2.21585938 13.48375 2.23046875 12.1875 C2.34263547 8.90645401 2.34263547 8.90645401 0 7 C-0.125 3.375 -0.125 3.375 0 0 Z " fill="#59C5E8" transform="translate(128,141)"/>
<path d="M0 0 C0.33 0 0.66 0 1 0 C1 10.89 1 21.78 1 33 C-3 31 -3 31 -5 28 C-3.35 28.33 -1.7 28.66 0 29 C0 19.43 0 9.86 0 0 Z " fill="#43D0FB" transform="translate(404,464)"/>
<path d="M0 0 C1.30517578 0.22042969 1.30517578 0.22042969 2.63671875 0.4453125 C4.72016132 0.78892324 6.8058326 1.11962427 8.89453125 1.4296875 C15.22395553 2.39562374 20.98798127 3.79559313 27 6 C27 6.33 27 6.66 27 7 C17.41505417 6.77662203 8.98409901 4.05481911 0 1 C0 0.67 0 0.34 0 0 Z " fill="#57C7EC" transform="translate(56,295)"/>
<path d="M0 0 C0.66 0.33 1.32 0.66 2 1 C-0.39922613 4.94158578 -1.94668643 6.97334321 -6 9 C-6.680625 10.03125 -7.36125 11.0625 -8.0625 12.125 C-9.0215625 13.548125 -9.0215625 13.548125 -10 15 C-10.99 15 -11.98 15 -13 15 C-11.38989473 10.92623969 -8.46177729 8.23492931 -5.375 5.25 C-4.859375 4.74339844 -4.34375 4.23679687 -3.8125 3.71484375 C-2.54616661 2.47196098 -1.2736856 1.23534724 0 0 Z " fill="#52C8EE" transform="translate(34,22)"/>
<path d="M0 0 C1.32 0.33 2.64 0.66 4 1 C2.27563834 2.60960555 0.54586672 4.21264034 -1.1875 5.8125 C-2.15042969 6.70582031 -3.11335937 7.59914063 -4.10546875 8.51953125 C-6.64644472 10.69702078 -9.07768383 12.39192474 -12 14 C-11.67 12.68 -11.34 11.36 -11 10 C-9.68 9.67 -8.36 9.34 -7 9 C-6.8453125 8.1028125 -6.8453125 8.1028125 -6.6875 7.1875 C-5.89496146 4.66578648 -5.08408591 3.60314301 -3 2 C-2.01 2 -1.02 2 0 2 C0 1.34 0 0.68 0 0 Z " fill="#51C6EB" transform="translate(200,323)"/>
<path d="M0 0 C4.64812294 3.76874833 5.92938557 7.10591808 7.32421875 12.890625 C7.54722656 13.58671875 7.77023437 14.2828125 8 15 C8.66 15.33 9.32 15.66 10 16 C10 17.98 10 19.96 10 22 C6.65121211 19.32487498 5.77967528 16.10524394 4.4375 12.125 C3.04536801 8.03967808 1.64628407 3.99053188 0 0 Z " fill="#5BCEEE" transform="translate(388,59)"/>
<path d="M0 0 C0.66 0.33 1.32 0.66 2 1 C0.303465 8.12544698 -2.43726326 12.26024349 -8 17 C-8.33 16.01 -8.66 15.02 -9 14 C-8.34 14 -7.68 14 -7 14 C-6.67 13.01 -6.34 12.02 -6 11 C-5.01 10.34 -4.02 9.68 -3 9 C-2.62599214 6.67284 -2.29235267 4.33882138 -2 2 C-1.34 1.34 -0.68 0.68 0 0 Z " fill="#4DCBF0" transform="translate(238,161)"/>
<path d="M0 0 C0.66 0.33 1.32 0.66 2 1 C-0.57036071 5.52383486 -2.6427471 7.63500768 -7.25 9.98828125 C-9.98809582 11.57124289 -11.87179718 13.6783242 -14 16 C-14.66 15.67 -15.32 15.34 -16 15 C-11.70328082 10.5824356 -7.27195049 6.40403459 -2.6015625 2.3828125 C-1.71147181 1.61429517 -0.83152881 0.83152881 0 0 Z " fill="#55C4E8" transform="translate(151,330)"/>
<path d="M0 0 C4.39605737 3.48652826 5.8277358 7.67705219 7 13 C7.21196866 15.72853275 7.1495823 18.25765791 7 21 C6.34 21 5.68 21 5 21 C4.97421875 20.29875 4.9484375 19.5975 4.921875 18.875 C4.5230575 12.20387098 3.27239834 7.80586802 0 2 C0 1.34 0 0.68 0 0 Z " fill="#60C7E9" transform="translate(234,139)"/>
<path d="M0 0 C-0.33 0.66 -0.66 1.32 -1 2 C-3.6875 2.37890625 -3.6875 2.37890625 -7 2.5625 C-10.81734612 2.45431019 -10.81734612 2.45431019 -14 4 C-16.67058851 4.14115161 -19.32432238 4.04247107 -22 4 C-15.40611099 -0.39592601 -7.70039658 -0.28936772 0 0 Z " fill="#52C2E4" transform="translate(86,3)"/>
<path d="M0 0 C1.32 0.99 2.64 1.98 4 3 C2.71480435 5.86697492 1.42870746 7.97607712 -1 10 C-1.66 10 -2.32 10 -3 10 C-3 10.66 -3 11.32 -3 12 C-3.99 11.67 -4.98 11.34 -6 11 C-6 10.01 -6 9.02 -6 8 C-4.02 7.67 -2.04 7.34 0 7 C0 4.69 0 2.38 0 0 Z " fill="#53D0F3" transform="translate(89,418)"/>
<path d="M0 0 C1 3 1 3 0 6 C-1.32 6 -2.64 6 -4 6 C-4.20625 6.53625 -4.4125 7.0725 -4.625 7.625 C-6.57996944 11.0017654 -9.18223695 13.30474839 -12 16 C-12.66 15.67 -13.32 15.34 -14 15 C-13.36384766 14.38125 -13.36384766 14.38125 -12.71484375 13.75 C-8.24761277 9.35149565 -4.0721472 4.76527863 0 0 Z " fill="#56C5EF" transform="translate(228,343)"/>
<path d="M0 0 C-0.99 0.33 -1.98 0.66 -3 1 C-3 1.99 -3 2.98 -3 4 C-4.65 4.66 -6.3 5.32 -8 6 C-8 5.34 -8 4.68 -8 4 C-10.31 3.67 -12.62 3.34 -15 3 C-15 2.67 -15 2.34 -15 2 C-13.06524329 1.46906676 -11.12706845 0.95057683 -9.1875 0.4375 C-8.10855469 0.14746094 -7.02960938 -0.14257812 -5.91796875 -0.44140625 C-3 -1 -3 -1 0 0 Z " fill="#4DC5EF" transform="translate(400,320)"/>
<path d="M0 0 C0.33 0 0.66 0 1 0 C1 1.98 1 3.96 1 6 C0.34 6 -0.32 6 -1 6 C-1 10.95 -1 15.9 -1 21 C-3.84767055 16.72849417 -3.50971259 13.01586739 -3 8 C-2.21354982 5.16787015 -1.19892564 2.6975827 0 0 Z " fill="#5AC3E5" transform="translate(298,143)"/>
<path d="M0 0 C0.33 1.32 0.66 2.64 1 4 C-0.65 4.66 -2.3 5.32 -4 6 C-4 6.66 -4 7.32 -4 8 C-6.88229224 9.92152816 -9.90127153 11.46387819 -13 13 C-9.0580583 8.11950075 -4.88049925 3.9419417 0 0 Z " fill="#55C5EA" transform="translate(185,300)"/>
<path d="M0 0 C3 2 3 2 3.73046875 4.1640625 C3.88128906 4.97617188 4.03210938 5.78828125 4.1875 6.625 C4.34605469 7.44226563 4.50460938 8.25953125 4.66796875 9.1015625 C4.83232422 10.04128906 4.83232422 10.04128906 5 11 C5.66 11 6.32 11 7 11 C7.99 14.3 8.98 17.6 10 21 C6.77623824 17.77623824 5.1698071 14.57134124 3.3125 10.5 C2.83200195 9.48486328 2.83200195 9.48486328 2.34179688 8.44921875 C0.96305234 5.4683084 0 3.32224796 0 0 Z " fill="#5AC4E9" transform="translate(6,240)"/>
<path d="M0 0 C0.99 0.33 1.98 0.66 3 1 C0.69 5.62 -1.62 10.24 -4 15 C-5.15941038 11.52176885 -4.70820884 9.54104422 -4 6 C-3.34 6 -2.68 6 -2 6 C-2 4.35 -2 2.7 -2 1 C-1.34 0.67 -0.68 0.34 0 0 Z " fill="#45C9EE" transform="translate(39,57)"/>
<path d="M0 0 C1.485 0.99 1.485 0.99 3 2 C3.99 2 4.98 2 6 2 C6 3.98 6 5.96 6 8 C6.99 8 7.98 8 9 8 C9.33 9.98 9.66 11.96 10 14 C5.78185183 10.0299782 2.38772897 5.69159716 -1 1 C-0.67 0.67 -0.34 0.34 0 0 Z " fill="#4DCCEF" transform="translate(378,45)"/>
<path d="M0 0 C0.66 0.33 1.32 0.66 2 1 C0.63554007 6.58188153 0.63554007 6.58188153 -2.375 8.5625 C-3.24125 9.036875 -4.1075 9.51125 -5 10 C-7.27537692 12.57183314 -7.27537692 12.57183314 -9 15 C-9.66 14.67 -10.32 14.34 -11 14 C-10.37351562 13.24074219 -9.74703125 12.48148438 -9.1015625 11.69921875 C-8.28429687 10.70535156 -7.46703125 9.71148437 -6.625 8.6875 C-5.81289063 7.70136719 -5.00078125 6.71523437 -4.1640625 5.69921875 C-1.94395043 3.01091621 -1.94395043 3.01091621 0 0 Z " fill="#4FC8ED" transform="translate(389,243)"/>
<path d="M0 0 C1.79639296 1.09646058 3.58697154 2.20245148 5.375 3.3125 C6.37273437 3.92738281 7.37046875 4.54226562 8.3984375 5.17578125 C11 7 11 7 13 10 C11.5164999 9.57742724 10.03823576 9.13643678 8.5625 8.6875 C7.73878906 8.44386719 6.91507812 8.20023438 6.06640625 7.94921875 C5.38449219 7.63597656 4.70257813 7.32273437 4 7 C3.67 6.01 3.34 5.02 3 4 C0.99983534 2.79117904 0.99983534 2.79117904 -1 2 C-0.67 1.34 -0.34 0.68 0 0 Z " fill="#50C2E7" transform="translate(458,112)"/>
<path d="M0 0 C1 2 1 2 0.44140625 4.1640625 C0.15136719 4.97617187 -0.13867188 5.78828125 -0.4375 6.625 C-0.72496094 7.44226562 -1.01242188 8.25953125 -1.30859375 9.1015625 C-1.65083984 10.04128906 -1.65083984 10.04128906 -2 11 C-2.66 11 -3.32 11 -4 11 C-4.33 12.32 -4.66 13.64 -5 15 C-5.66 15 -6.32 15 -7 15 C-5.45454854 9.52067211 -2.84456788 4.88570819 0 0 Z " fill="#53C5EB" transform="translate(15,44)"/>
<path d="M0 0 C0.66 0 1.32 0 2 0 C1.125 6.75 1.125 6.75 0 9 C-1.32 9 -2.64 9 -4 9 C-3.34 6.69 -2.68 4.38 -2 2 C-1.34 2 -0.68 2 0 2 C0 1.34 0 0.68 0 0 Z " fill="#49C8F3" transform="translate(396,229)"/>
<path d="M0 0 C2.96404505 2.80804268 5.44499019 5.18315774 7 9 C4.525 8.01 4.525 8.01 2 7 C1.67 7.99 1.34 8.98 1 10 C-0.80411967 7.24075815 -1.0127245 6.11027897 -0.625 2.75 C-0.41875 1.8425 -0.2125 0.935 0 0 Z " fill="#43C5ED" transform="translate(402,30)"/>
<path d="M0 0 C0.66 0.33 1.32 0.66 2 1 C-0.80627778 5.74908547 -3.25091453 8.19372222 -8 11 C-8 8 -8 8 -6.25 5.95703125 C-5.5075 5.24933594 -4.765 4.54164063 -4 3.8125 C-2.88625 2.73935547 -2.88625 2.73935547 -1.75 1.64453125 C-1.1725 1.10183594 -0.595 0.55914062 0 0 Z " fill="#50C4EE" transform="translate(133,346)"/>
<path d="M0 0 C-1.52012677 5.40489519 -5.27385218 8.98492628 -9 13 C-9 9.40142046 -8.04169485 7.90548882 -6 5 C-5.34 5 -4.68 5 -4 5 C-4 3.68 -4 2.36 -4 1 C-2 0 -2 0 0 0 Z " fill="#58CAEE" transform="translate(489,340)"/>
<path d="M0 0 C-3.74579221 3.67530688 -7.77339676 3.7377075 -12.75 4.1875 C-13.93916016 4.3102832 -13.93916016 4.3102832 -15.15234375 4.43554688 C-17.10043334 4.63505003 -19.05009871 4.81905938 -21 5 C-17.47112083 2.64741389 -13.99496906 1.80623911 -9.9375 0.8125 C-8.83825195 0.52729492 -8.83825195 0.52729492 -7.71679688 0.23632812 C-2.24879292 -1.12439646 -2.24879292 -1.12439646 0 0 Z " fill="#5FC3E5" transform="translate(362,269)"/>
<path d="M0 0 C0.66 0.33 1.32 0.66 2 1 C1.47606294 6.86809507 0.23891142 11.54873741 -2 17 C-3.44715727 13.12813552 -2.5441918 10.1767672 -1.5625 6.25 C-1.27503906 5.07953125 -0.98757813 3.9090625 -0.69140625 2.703125 C-0.46324219 1.81109375 -0.23507812 0.9190625 0 0 Z " fill="#53C5EC" transform="translate(423,229)"/>
<path d="M0 0 C-4.65285818 3.10190545 -9.41532676 4.33846504 -15 4 C-15 3.34 -15 2.68 -15 2 C-9.68670645 -0.08989546 -5.71271928 -1.6112798 0 0 Z " fill="#55C5ED" transform="translate(367,297)"/>
<path d="M0 0 C0.86625 0.18175781 1.7325 0.36351562 2.625 0.55078125 C3.49125 0.71964844 4.3575 0.88851563 5.25 1.0625 C7.79089048 1.91921472 8.92270573 2.8306075 10.625 4.86328125 C5.75 3.98828125 5.75 3.98828125 4.625 2.86328125 C1.95441149 2.72212964 -0.69932238 2.82081018 -3.375 2.86328125 C-3.705 3.52328125 -4.035 4.18328125 -4.375 4.86328125 C-4.705 3.87328125 -5.035 2.88328125 -5.375 1.86328125 C-2.375 -0.13671875 -2.375 -0.13671875 0 0 Z " fill="#47C9F6" transform="translate(373.375,11.13671875)"/>
<path d="M0 0 C-4.61012242 2.95047835 -7.36529617 4.5497272 -13 4 C-12.67 3.01 -12.34 2.02 -12 1 C-10.35 1.33 -8.7 1.66 -7 2 C-7 1.34 -7 0.68 -7 0 C-3.98968256 -0.93423645 -3.13349732 -1.04449911 0 0 Z " fill="#4BCBED" transform="translate(339,177)"/>
<path d="M0 0 C2.49361571 1.20381448 4.68143083 2.45428722 7 4 C7 4.66 7 5.32 7 6 C7.66 6 8.32 6 9 6 C9.33 7.65 9.66 9.3 10 11 C5.86062408 7.69984002 2.41337795 4.82675589 0 0 Z " fill="#58C9EE" transform="translate(290,379)"/>
<path d="M0 0 C0 3 0 3 -1.4609375 4.71875 C-2.09257812 5.3065625 -2.72421875 5.894375 -3.375 6.5 C-5.65041801 8.63496011 -7.24747563 10.37121344 -9 13 C-9.99 12.67 -10.98 12.34 -12 12 C-8.04 8.04 -4.08 4.08 0 0 Z " fill="#59C4E5" transform="translate(245,326)"/>
<path d="M0 0 C0 3 0 3 -1 6 C-1.66 6 -2.32 6 -3 6 C-3.33 6.99 -3.66 7.98 -4 9 C-6.0625 10.1875 -6.0625 10.1875 -8 11 C-6.52670958 5.99081256 -3.72484762 3.48192278 0 0 Z " fill="#58C8EA" transform="translate(198,134)"/>
<path d="M0 0 C3.35861695 1.43409972 5.35874939 3.19369321 7.75 5.9375 C8.36359375 6.62714844 8.9771875 7.31679688 9.609375 8.02734375 C11 10 11 10 11 13 C9.34810857 11.40207236 7.7036661 9.79644124 6.0625 8.1875 C5.14597656 7.29417969 4.22945312 6.40085937 3.28515625 5.48046875 C1 3 1 3 0 0 Z " fill="#5EC8E8" transform="translate(20,267)"/>
<path d="M0 0 C0.66 0.33 1.32 0.66 2 1 C1.34 2.65 0.68 4.3 0 6 C-2.64 6.33 -5.28 6.66 -8 7 C-7.236875 6.401875 -6.47375 5.80375 -5.6875 5.1875 C-3.6516425 3.53040668 -1.8021721 1.89702326 0 0 Z " fill="#4FC3ED" transform="translate(376,258)"/>
<path d="M0 0 C3.80718548 0.72753266 7.55485569 1.61276572 11.3125 2.5625 C12.38113281 2.83191406 13.44976562 3.10132813 14.55078125 3.37890625 C15.76314453 3.68634766 15.76314453 3.68634766 17 4 C17 4.33 17 4.66 17 5 C11.22772713 5.36844295 6.2769839 4.46863195 1 2 C0.67 1.34 0.34 0.68 0 0 Z " fill="#68C9E8" transform="translate(200,178)"/>
<path d="M0 0 C2.40034102 3.60051153 4.32187705 6.96144535 3.625 11.375 C3.41875 11.91125 3.2125 12.4475 3 13 C2.01 12.34 1.02 11.68 0 11 C-0.29296875 8.3984375 -0.29296875 8.3984375 -0.1875 5.375 C-0.16042969 4.37210938 -0.13335937 3.36921875 -0.10546875 2.3359375 C-0.07066406 1.56507813 -0.03585937 0.79421875 0 0 Z " fill="#4ABFE9" transform="translate(492,152)"/>
<path d="M0 0 C3.39417765 3.12621626 5.6062718 5.56541027 7 10 C5.68 9.34 4.36 8.68 3 8 C3 7.01 3 6.02 3 5 C2.01 4.67 1.02 4.34 0 4 C0 2.68 0 1.36 0 0 Z " fill="#50C4ED" transform="translate(480,132)"/>
<path d="M0 0 C-0.33 1.65 -0.66 3.3 -1 5 C-2.9375 4.1875 -2.9375 4.1875 -5 3 C-5.33 2.01 -5.66 1.02 -6 0 C-3 -1 -3 -1 0 0 Z " fill="#45C9F8" transform="translate(320,403)"/>
<path d="M0 0 C0.53625 0.226875 1.0725 0.45375 1.625 0.6875 C-0.42733685 2.9352975 -1.38167261 3.6897242 -4.375 4.6875 C-6.5625 3.75 -6.5625 3.75 -8.375 2.6875 C-2.95961538 -0.38942308 -2.95961538 -0.38942308 0 0 Z " fill="#4EC4F2" transform="translate(413.375,313.3125)"/>
<path d="M0 0 C1.98 0 3.96 0 6 0 C3.4347341 1.71017726 1.12039035 2.90417811 -1.6875 4.125 C-2.49574219 4.47820313 -3.30398437 4.83140625 -4.13671875 5.1953125 C-4.75160156 5.46085937 -5.36648437 5.72640625 -6 6 C-5.67 4.68 -5.34 3.36 -5 2 C-3.35 2 -1.7 2 0 2 C0 1.34 0 0.68 0 0 Z " fill="#50C4EA" transform="translate(65,35)"/>
<path d="M0 0 C0.598125 0.165 1.19625 0.33 1.8125 0.5 C4.11344336 1.1114124 4.11344336 1.1114124 7 1 C3.04 4.465 3.04 4.465 -1 8 C-1.33 7.34 -1.66 6.68 -2 6 C-1.34 5.67 -0.68 5.34 0 5 C0 3.35 0 1.7 0 0 Z " fill="#50C5EB" transform="translate(163,353)"/>
<path d="M0 0 C0.66 1.32 1.32 2.64 2 4 C1.01 5.485 1.01 5.485 0 7 C-0.66 7 -1.32 7 -2 7 C-2 6.34 -2 5.68 -2 5 C-2.99 4.67 -3.98 4.34 -5 4 C-3.35 2.68 -1.7 1.36 0 0 Z " fill="#48C9F1" transform="translate(191,295)"/>
<path d="M0 0 C1.1725131 0.95117134 2.33787015 1.91117009 3.5 2.875 C4.47453125 3.67550781 4.47453125 3.67550781 5.46875 4.4921875 C5.9740625 4.98976562 6.479375 5.48734375 7 6 C7 6.66 7 7.32 7 8 C5.68 8 4.36 8 3 8 C3 6.68 3 5.36 3 4 C2.01 4 1.02 4 0 4 C0 2.68 0 1.36 0 0 Z " fill="#4DC3E7" transform="translate(473,124)"/>
<path d="M0 0 C2.475 0.99 2.475 0.99 5 2 C4.01 2.495 4.01 2.495 3 3 C3.99 4.32 4.98 5.64 6 7 C5.67 7.66 5.34 8.32 5 9 C3.02 6.69 1.04 4.38 -1 2 C-0.67 1.34 -0.34 0.68 0 0 Z " fill="#4FC9F1" transform="translate(362,451)"/>
<path d="M0 0 C1.32 0.33 2.64 0.66 4 1 C2.37750059 1.83819158 0.75191503 2.6704116 -0.875 3.5 C-2.23238281 4.19609375 -2.23238281 4.19609375 -3.6171875 4.90625 C-6 6 -6 6 -8 6 C-7.67 5.01 -7.34 4.02 -7 3 C-3.535 2.505 -3.535 2.505 0 2 C0 1.34 0 0.68 0 0 Z " fill="#48C9EB" transform="translate(380,289)"/>
<path d="M0 0 C0.66 0 1.32 0 2 0 C0.68775452 3.93673644 -0.91910327 6.22719294 -4 9 C-4.33 7.35 -4.66 5.7 -5 4 C-4.01 4 -3.02 4 -2 4 C-2 3.34 -2 2.68 -2 2 C-1.34 2 -0.68 2 0 2 C0 1.34 0 0.68 0 0 Z " fill="#4EC6EA" transform="translate(413,257)"/>
<path d="M0 0 C1.32 0 2.64 0 4 0 C4 0.66 4 1.32 4 2 C4.94875 1.938125 5.8975 1.87625 6.875 1.8125 C7.90625 1.874375 8.9375 1.93625 10 2 C10.99 3.485 10.99 3.485 12 5 C7.43545749 4.45660208 4.0271824 3.20536179 0 1 C0 0.67 0 0.34 0 0 Z " fill="#57CCEC" transform="translate(90,177)"/>
<path d="M0 0 C0.99 0.33 1.98 0.66 3 1 C1.88121617 2.17262904 0.75476949 3.33795138 -0.375 4.5 C-1.00148438 5.1496875 -1.62796875 5.799375 -2.2734375 6.46875 C-4 8 -4 8 -6 8 C-5.34 6.68 -4.68 5.36 -4 4 C-3.34 4 -2.68 4 -2 4 C-1.34 2.68 -0.68 1.36 0 0 Z " fill="#4FC7E8" transform="translate(125,171)"/>
<path d="M0 0 C2.3125 0.1875 2.3125 0.1875 5 1 C6.875 3.4375 6.875 3.4375 8 6 C7.67 6.66 7.34 7.32 7 8 C5.83035398 6.8572081 4.66435444 5.71068285 3.5 4.5625 C2.8503125 3.92441406 2.200625 3.28632813 1.53125 2.62890625 C0 1 0 1 0 0 Z " fill="#51C6E7" transform="translate(368,460)"/>
<path d="M0 0 C1.32 0 2.64 0 4 0 C8 5 8 5 8 9 C6.66368764 7.6905332 5.33102075 6.37734515 4 5.0625 C3.2575 4.33160156 2.515 3.60070312 1.75 2.84765625 C0 1 0 1 0 0 Z " fill="#5DC9EA" transform="translate(347,439)"/>
<path d="M0 0 C-1.62339805 1.70884005 -3.29319053 3.37446717 -5 5 C-5.66 5 -6.32 5 -7 5 C-6.67 3.35 -6.34 1.7 -6 0 C-2.25 -1.125 -2.25 -1.125 0 0 Z " fill="#55C9F1" transform="translate(479,354)"/>
<path d="M0 0 C2.37948772 0.17625835 3.70225849 0.69719773 5.37890625 2.40234375 C6.62115486 3.90649092 7.81376056 5.45129851 9 7 C8.67 7.66 8.34 8.32 8 9 C6.66368764 7.6905332 5.33102075 6.37734515 4 5.0625 C3.2575 4.33160156 2.515 3.60070312 1.75 2.84765625 C0 1 0 1 0 0 Z " fill="#63CBEB" transform="translate(390,483)"/>
<path d="M0 0 C1.32 0.33 2.64 0.66 4 1 C1.69 3.31 -0.62 5.62 -3 8 C-3 4.30465565 -2.63342306 2.63342306 0 0 Z " fill="#52C6E8" transform="translate(119,395)"/>
<path d="M0 0 C0.33 0.66 0.66 1.32 1 2 C-1.84936103 5.00765886 -4.23511958 7.27845212 -8 9 C-7.04270084 7.87411986 -6.08412105 6.7493285 -5.125 5.625 C-4.59132812 4.99851562 -4.05765625 4.37203125 -3.5078125 3.7265625 C-2.38567993 2.44163349 -1.20628025 1.20628025 0 0 Z " fill="#59C5E8" transform="translate(213,359)"/>
<path d="M0 0 C0.33 0.66 0.66 1.32 1 2 C2.94603274 2.59070014 2.94603274 2.59070014 5 3 C5.66 3.33 6.32 3.66 7 4 C7 4.66 7 5.32 7 6 C3.08788267 4.84414715 0.1254959 3.64465038 -3 1 C-2.01 0.67 -1.02 0.34 0 0 Z " fill="#4FC5E9" transform="translate(49,289)"/>
<path d="M0 0 C0.66 0.33 1.32 0.66 2 1 C1.67 3.31 1.34 5.62 1 8 C-1.2477975 5.94766315 -2.0022242 4.99332739 -3 2 C-2.01 2 -1.02 2 0 2 C0 1.34 0 0.68 0 0 Z " fill="#4EC7F0" transform="translate(300,164)"/>
<path d="M0 0 C0.66 0.33 1.32 0.66 2 1 C-1.96 4.465 -1.96 4.465 -6 8 C-6.33 7.34 -6.66 6.68 -7 6 C-6.34 6 -5.68 6 -5 6 C-5 5.01 -5 4.02 -5 3 C-2.625 1.25 -2.625 1.25 0 0 Z " fill="#5AC2E5" transform="translate(177,345)"/>
<path d="M0 0 C0.66 0.33 1.32 0.66 2 1 C0.84414715 4.91211733 -0.35534962 7.8745041 -3 11 C-3.125 8.625 -3.125 8.625 -3 6 C-2.34 5.34 -1.68 4.68 -1 4 C-0.3574765 1.93125966 -0.3574765 1.93125966 0 0 Z " fill="#51C4E6" transform="translate(418,246)"/>
<path d="M0 0 C0.33 0 0.66 0 1 0 C1 1.98 1 3.96 1 6 C-2.16115776 4.63016497 -2.9927092 4.0109362 -5 1 C-2.525 1.495 -2.525 1.495 0 2 C0 1.34 0 0.68 0 0 Z " fill="#6BC6E1" transform="translate(404,491)"/>
<path d="M0 0 C0.66 0.33 1.32 0.66 2 1 C-0.31 3.31 -2.62 5.62 -5 8 C-5.33 7.01 -5.66 6.02 -6 5 C-5.34 5 -4.68 5 -4 5 C-3.67 4.01 -3.34 3.02 -3 2 C-2.01 1.34 -1.02 0.68 0 0 Z " fill="#5DC3EA" transform="translate(235,170)"/>
<path d="M0 0 C2.09749995 2.35968744 2.96905704 3.54616994 3.1875 6.75 C3.0946875 7.86375 3.0946875 7.86375 3 9 C2.34 9 1.68 9 1 9 C0.08941469 5.92677456 -0.08886184 3.19902639 0 0 Z " fill="#55C7EB" transform="translate(345,144)"/>
<path d="M0 0 C-2.64 1.98 -5.28 3.96 -8 6 C-7.67 4.02 -7.34 2.04 -7 0 C-3.98968256 -0.93423645 -3.13349732 -1.04449911 0 0 Z " fill="#54C4E9" transform="translate(56,44)"/>
<path d="M0 0 C3.25543229 0.34879632 4.01873107 1.02133261 6.25 3.5625 C6.8275 4.366875 7.405 5.17125 8 6 C7.67 6.66 7.34 7.32 7 8 C5.83035398 6.8572081 4.66435444 5.71068285 3.5 4.5625 C2.8503125 3.92441406 2.200625 3.28632813 1.53125 2.62890625 C0 1 0 1 0 0 Z " fill="#5AC7E7" transform="translate(337,428)"/>
<path d="M0 0 C0.66 0.33 1.32 0.66 2 1 C-1.465 3.97 -1.465 3.97 -5 7 C-5 5.68 -5 4.36 -5 3 C-2.625 1.1875 -2.625 1.1875 0 0 Z " fill="#5ACAEA" transform="translate(158,362)"/>
<path d="M0 0 C-5.625 3 -5.625 3 -9 3 C-9 2.34 -9 1.68 -9 1 C-2.25 -1.125 -2.25 -1.125 0 0 Z " fill="#59CAEB" transform="translate(228,179)"/>
<path d="M0 0 C1.65 0 3.3 0 5 0 C5.33 1.32 5.66 2.64 6 4 C3.525 3.01 3.525 3.01 1 2 C0.67 2.66 0.34 3.32 0 4 C-0.33 3.34 -0.66 2.68 -1 2 C-0.67 1.34 -0.34 0.68 0 0 Z " fill="#43CBF8" transform="translate(467,122)"/>
</svg>
